<?xml version="1.0" encoding="iso-8859-1"?>
<!-- Generator: Adobe Illustrator 19.0.0, SVG Export Plug-In . SVG Version: 6.00 Build 0)  -->
<svg version="1.1" id="Capa_1" xmlns="http://www.w3.org/2000/svg" xmlns:xlink="http://www.w3.org/1999/xlink" x="0px" y="0px"
	 viewBox="0 0 512 512" style="enable-background:new 0 0 512 512;" xml:space="preserve">
<g>
	<g>
		<path d="M301,212c-66.72,0-121,53.832-121,120s54.28,120,121,120s121-53.832,121-120S367.72,212,301,212z M301,422
			c-50.178,0-91-40.374-91-90c0-49.626,40.822-90,91-90c50.178,0,91,40.374,91,90C392,381.626,351.178,422,301,422z"/>
	</g>
</g>
<g>
	<g>
		<path d="M301,272c-33.014,0-61,26.741-61,60c0,33.333,28.057,60,61,60c33.014,0,61-26.741,61-60C362,298.667,333.943,272,301,272z
			 M301,362c-16.804,0-31-13.738-31-30c0-16.262,14.196-30,31-30c16.804,0,31,13.738,31,30C332,348.262,317.804,362,301,362z"/>
	</g>
</g>
<g>
	<g>
		<path d="M467,182h-53.787l-25.607-25.606C384.793,153.581,380.978,152,377,152h-15v-30.493c16.595-2.454,30.643-14,36.068-30.276
			c0.03-0.09,0.059-0.18,0.087-0.27l9.961-31.876C417.727,29.938,396.06,0,365.377,0H236.623c-30.689,0-52.347,29.946-42.739,59.085
			l9.961,31.876c0.028,0.09,0.057,0.18,0.087,0.27c5.426,16.277,19.474,27.823,36.068,30.276V152h-15
			c-3.978,0-7.793,1.581-10.606,4.394L188.787,182H150v-15c0-24.813-20.187-45-45-45s-45,20.187-45,45v15H45
			c-24.813,0-45,20.187-45,45c0,2.273,0,237.855,0,240c0,24.813,20.187,45,45,45h422c24.813,0,45-20.187,45-45V227
			C512,202.187,491.813,182,467,182z M232.43,81.854l-9.95-31.841c-0.028-0.09-0.057-0.18-0.087-0.269
			C219.15,40.018,226.373,30,236.623,30h128.755c10.252,0,17.471,10.02,14.23,19.744c-0.03,0.089-0.059,0.179-0.087,0.269
			l-9.95,31.841C367.494,87.927,361.805,92,355.377,92c-10.821,0-98.273,0-108.755,0C240.195,92,234.506,87.927,232.43,81.854z
			 M332,122v30h-62v-30H332z M90,167c0-8.271,6.729-15,15-15s15,6.729,15,15v15H90V167z M30,272h75c8.271,0,15,6.729,15,15v120
			c0,8.271-6.729,15-15,15H30V272z M482,467c0,8.271-6.729,15-15,15H45c-8.271,0-15-6.729-15-15v-15h75c24.813,0,45-20.187,45-45
			V287c0-24.813-20.187-45-45-45H30v-15c0-8.271,6.729-15,15-15c6.642,0,143.652,0,150,0c3.978,0,7.793-1.581,10.606-4.394
			L231.213,182c6.101,0,134.194,0,139.573,0l25.607,25.606C399.207,210.419,403.022,212,407,212h60c8.271,0,15,6.729,15,15V467z"/>
	</g>
</g>
<g>
	<g>
		<path d="M75,302c-8.284,0-15,6.716-15,15v60c0,8.284,6.716,15,15,15s15-6.716,15-15v-60C90,308.716,83.284,302,75,302z"/>
	</g>
</g>
<g>
	<g>
		<circle cx="437" cy="257" r="15"/>
	</g>
</g>
<g>
</g>
<g>
</g>
<g>
</g>
<g>
</g>
<g>
</g>
<g>
</g>
<g>
</g>
<g>
</g>
<g>
</g>
<g>
</g>
<g>
</g>
<g>
</g>
<g>
</g>
<g>
</g>
<g>
</g>
</svg>
