<?xml version="1.0" encoding="iso-8859-1"?>
<!-- Generator: Adobe Illustrator 19.0.0, SVG Export Plug-In . SVG Version: 6.00 Build 0)  -->
<svg version="1.1" id="Capa_1" xmlns="http://www.w3.org/2000/svg" xmlns:xlink="http://www.w3.org/1999/xlink" x="0px" y="0px"
	 viewBox="0 0 512 512" style="enable-background:new 0 0 512 512;" xml:space="preserve">
<g>
	<g>
		<path d="M300,241c-49.629,0-90,40.371-90,90c0,49.629,40.371,90,90,90c49.629,0,90-40.371,90-90C390,281.371,349.629,241,300,241z
			 M300,391c-33.091,0-60-26.909-60-60s26.909-60,60-60s60,26.909,60,60S333.091,391,300,391z"/>
	</g>
</g>
<g>
	<g>
		<path d="M105,271H0v150h105c8.276,0,15-6.724,15-15V286C120,277.724,113.276,271,105,271z M90,376c0,8.291-6.709,15-15,15
			s-15-6.709-15-15v-60c0-8.291,6.709-15,15-15s15,6.709,15,15V376z"/>
	</g>
</g>
<g>
	<g>
		<path d="M466,181h-54.789l-25.605-25.605C382.793,152.582,378.984,151,375,151H225c-3.984,0-7.793,1.582-10.605,4.395L188.789,181
			H45c-24.814,0-45,20.186-45,45v15h105c24.814,0,45,20.186,45,45v120c0,24.814-20.186,45-45,45H0v15c0,24.814,20.186,46,45,46h421
			c24.814,0,46-21.186,46-46V226C512,201.186,490.814,181,466,181z M300,451c-66.167,0-120-53.833-120-120s53.833-120,120-120
			s120,53.833,120,120S366.167,451,300,451z M435,271c-8.284,0-15-6.716-15-15c0-8.286,6.716-15,15-15s15,6.714,15,15
			C450,264.284,443.284,271,435,271z"/>
	</g>
</g>
<g>
	<g>
		<path d="M300,301c-16.538,0-30,13.462-30,30c0,16.538,13.462,30,30,30c16.538,0,30-13.462,30-30C330,314.462,316.538,301,300,301z
			"/>
	</g>
</g>
<g>
	<g>
		<path d="M105,91c-24.814,0-45,20.186-45,45v15h90v-15C150,111.186,129.814,91,105,91z"/>
	</g>
</g>
<g>
	<g>
		<path d="M357.567,0H242.433c-30.714,0-52.403,31.092-42.689,60.229l3.419,10.258C207.246,82.736,218.71,91,231.623,91H240v30h120
			V91h8.377c12.913,0,24.377-8.264,28.46-20.513l3.419-10.258C409.969,31.092,388.281,0,357.567,0z"/>
	</g>
</g>
<g>
</g>
<g>
</g>
<g>
</g>
<g>
</g>
<g>
</g>
<g>
</g>
<g>
</g>
<g>
</g>
<g>
</g>
<g>
</g>
<g>
</g>
<g>
</g>
<g>
</g>
<g>
</g>
<g>
</g>
</svg>
